<mxfile host="app.diagrams.net" agent="Mozilla/5.0 (X11; Linux x86_64; rv:133.0) Gecko/20100101 Firefox/133.0" version="25.0.3">
  <diagram name="Page-1" id="uk6Wi_wRMxRNZtlxgZb_">
    <mxGraphModel dx="1588" dy="940" grid="1" gridSize="10" guides="1" tooltips="1" connect="1" arrows="1" fold="1" page="1" pageScale="1" pageWidth="850" pageHeight="1100" math="0" shadow="0">
      <root>
        <mxCell id="0" />
        <mxCell id="1" parent="0" />
        <mxCell id="9ZWhQ6ZYqwrQ18zPPCwm-1" value="&lt;font style=&quot;font-size: 21px;&quot;&gt;算子库展示&lt;br&gt;&lt;/font&gt;" style="rounded=0;whiteSpace=wrap;html=1;" vertex="1" parent="1">
          <mxGeometry x="40" y="40" width="230" height="80" as="geometry" />
        </mxCell>
        <mxCell id="9ZWhQ6ZYqwrQ18zPPCwm-2" value="算子库" style="swimlane;childLayout=stackLayout;resizeParent=1;resizeParentMax=0;horizontal=1;startSize=20;horizontalStack=0;html=1;" vertex="1" parent="1">
          <mxGeometry x="40" y="170" width="240" height="260" as="geometry" />
        </mxCell>
        <mxCell id="9ZWhQ6ZYqwrQ18zPPCwm-3" value="密码学" style="swimlane;startSize=20;horizontal=0;html=1;" vertex="1" parent="9ZWhQ6ZYqwrQ18zPPCwm-2">
          <mxGeometry y="20" width="240" height="120" as="geometry" />
        </mxCell>
        <mxCell id="9ZWhQ6ZYqwrQ18zPPCwm-6" value="MD5" style="rounded=0;whiteSpace=wrap;html=1;fillColor=#d5e8d4;strokeColor=#82b366;" vertex="1" parent="9ZWhQ6ZYqwrQ18zPPCwm-3">
          <mxGeometry x="30" y="10" width="80" height="50" as="geometry" />
        </mxCell>
        <mxCell id="9ZWhQ6ZYqwrQ18zPPCwm-7" value="SHA-1" style="rounded=0;whiteSpace=wrap;html=1;fillColor=#dae8fc;strokeColor=#6c8ebf;" vertex="1" parent="9ZWhQ6ZYqwrQ18zPPCwm-3">
          <mxGeometry x="130" y="10" width="80" height="50" as="geometry" />
        </mxCell>
        <mxCell id="9ZWhQ6ZYqwrQ18zPPCwm-8" value="SM3" style="rounded=0;whiteSpace=wrap;html=1;fillColor=#fff2cc;strokeColor=#d6b656;" vertex="1" parent="9ZWhQ6ZYqwrQ18zPPCwm-3">
          <mxGeometry x="70" y="70" width="80" height="40" as="geometry" />
        </mxCell>
        <mxCell id="9ZWhQ6ZYqwrQ18zPPCwm-4" value="神经网络" style="swimlane;startSize=20;horizontal=0;html=1;" vertex="1" parent="9ZWhQ6ZYqwrQ18zPPCwm-2">
          <mxGeometry y="140" width="240" height="120" as="geometry" />
        </mxCell>
        <mxCell id="9ZWhQ6ZYqwrQ18zPPCwm-9" value="lenet" style="rounded=0;whiteSpace=wrap;html=1;fillColor=#e1d5e7;strokeColor=#9673a6;" vertex="1" parent="9ZWhQ6ZYqwrQ18zPPCwm-4">
          <mxGeometry x="30" y="10" width="100" height="60" as="geometry" />
        </mxCell>
        <mxCell id="9ZWhQ6ZYqwrQ18zPPCwm-12" value="" style="shape=flexArrow;endArrow=classic;html=1;rounded=0;exitX=1;exitY=0.5;exitDx=0;exitDy=0;entryX=0;entryY=0.5;entryDx=0;entryDy=0;" edge="1" parent="1" source="9ZWhQ6ZYqwrQ18zPPCwm-11" target="9ZWhQ6ZYqwrQ18zPPCwm-14">
          <mxGeometry width="50" height="50" relative="1" as="geometry">
            <mxPoint x="400" y="410" as="sourcePoint" />
            <mxPoint x="470" y="160" as="targetPoint" />
          </mxGeometry>
        </mxCell>
        <mxCell id="9ZWhQ6ZYqwrQ18zPPCwm-13" value="" style="shape=flexArrow;endArrow=classic;html=1;rounded=0;exitX=1;exitY=0.5;exitDx=0;exitDy=0;" edge="1" parent="1" source="9ZWhQ6ZYqwrQ18zPPCwm-7" target="9ZWhQ6ZYqwrQ18zPPCwm-11">
          <mxGeometry width="50" height="50" relative="1" as="geometry">
            <mxPoint x="250" y="225" as="sourcePoint" />
            <mxPoint x="470" y="160" as="targetPoint" />
          </mxGeometry>
        </mxCell>
        <mxCell id="9ZWhQ6ZYqwrQ18zPPCwm-11" value="鼠标点击后可以打开子级菜单" style="text;html=1;align=center;verticalAlign=middle;whiteSpace=wrap;rounded=0;" vertex="1" parent="1">
          <mxGeometry x="310" y="180" width="80" height="45" as="geometry" />
        </mxCell>
        <mxCell id="9ZWhQ6ZYqwrQ18zPPCwm-14" value="SHA-1" style="swimlane;whiteSpace=wrap;html=1;" vertex="1" parent="1">
          <mxGeometry x="480" y="50" width="210" height="200" as="geometry" />
        </mxCell>
        <mxCell id="9ZWhQ6ZYqwrQ18zPPCwm-15" value="此处展示 SHA-1 算核的信息和说明" style="text;html=1;align=center;verticalAlign=middle;resizable=0;points=[];autosize=1;strokeColor=none;fillColor=none;" vertex="1" parent="9ZWhQ6ZYqwrQ18zPPCwm-14">
          <mxGeometry y="90" width="210" height="30" as="geometry" />
        </mxCell>
        <mxCell id="9ZWhQ6ZYqwrQ18zPPCwm-16" value="" style="shape=flexArrow;endArrow=classic;html=1;rounded=0;exitX=1;exitY=0.5;exitDx=0;exitDy=0;" edge="1" parent="1" source="9ZWhQ6ZYqwrQ18zPPCwm-9" target="9ZWhQ6ZYqwrQ18zPPCwm-17">
          <mxGeometry width="50" height="50" relative="1" as="geometry">
            <mxPoint x="400" y="410" as="sourcePoint" />
            <mxPoint x="350" y="360" as="targetPoint" />
          </mxGeometry>
        </mxCell>
        <mxCell id="9ZWhQ6ZYqwrQ18zPPCwm-17" value="LENET" style="swimlane;whiteSpace=wrap;html=1;startSize=30;" vertex="1" parent="1">
          <mxGeometry x="325" y="280" width="200" height="200" as="geometry" />
        </mxCell>
        <mxCell id="9ZWhQ6ZYqwrQ18zPPCwm-18" value="conv" style="rounded=0;whiteSpace=wrap;html=1;fillColor=#dae8fc;strokeColor=#6c8ebf;" vertex="1" parent="9ZWhQ6ZYqwrQ18zPPCwm-17">
          <mxGeometry x="15" y="40" width="80" height="50" as="geometry" />
        </mxCell>
        <mxCell id="9ZWhQ6ZYqwrQ18zPPCwm-19" value="relu" style="rounded=0;whiteSpace=wrap;html=1;fillColor=#ffe6cc;strokeColor=#d79b00;" vertex="1" parent="9ZWhQ6ZYqwrQ18zPPCwm-17">
          <mxGeometry x="15" y="100" width="80" height="50" as="geometry" />
        </mxCell>
        <mxCell id="9ZWhQ6ZYqwrQ18zPPCwm-20" value="view" style="rounded=0;whiteSpace=wrap;html=1;fillColor=#d5e8d4;strokeColor=#82b366;" vertex="1" parent="9ZWhQ6ZYqwrQ18zPPCwm-17">
          <mxGeometry x="105" y="40" width="80" height="50" as="geometry" />
        </mxCell>
        <mxCell id="9ZWhQ6ZYqwrQ18zPPCwm-21" value="permute" style="rounded=0;whiteSpace=wrap;html=1;fillColor=#e1d5e7;strokeColor=#9673a6;" vertex="1" parent="9ZWhQ6ZYqwrQ18zPPCwm-17">
          <mxGeometry x="110" y="100" width="75" height="50" as="geometry" />
        </mxCell>
        <mxCell id="9ZWhQ6ZYqwrQ18zPPCwm-22" value="..." style="text;html=1;align=center;verticalAlign=middle;whiteSpace=wrap;rounded=0;" vertex="1" parent="9ZWhQ6ZYqwrQ18zPPCwm-17">
          <mxGeometry x="65" y="160" width="60" height="30" as="geometry" />
        </mxCell>
        <mxCell id="9ZWhQ6ZYqwrQ18zPPCwm-23" value="LENET (permute)" style="swimlane;whiteSpace=wrap;html=1;" vertex="1" parent="1">
          <mxGeometry x="580" y="370" width="200" height="200" as="geometry" />
        </mxCell>
        <mxCell id="9ZWhQ6ZYqwrQ18zPPCwm-25" value="此处展示 permute 的详细信息和说明" style="text;html=1;align=center;verticalAlign=middle;whiteSpace=wrap;rounded=0;" vertex="1" parent="9ZWhQ6ZYqwrQ18zPPCwm-23">
          <mxGeometry x="20" y="50" width="160" height="130" as="geometry" />
        </mxCell>
        <mxCell id="9ZWhQ6ZYqwrQ18zPPCwm-24" value="" style="shape=flexArrow;endArrow=classic;html=1;rounded=0;exitX=1;exitY=0.5;exitDx=0;exitDy=0;entryX=0;entryY=0.5;entryDx=0;entryDy=0;" edge="1" parent="1" source="9ZWhQ6ZYqwrQ18zPPCwm-21" target="9ZWhQ6ZYqwrQ18zPPCwm-23">
          <mxGeometry width="50" height="50" relative="1" as="geometry">
            <mxPoint x="400" y="410" as="sourcePoint" />
            <mxPoint x="450" y="360" as="targetPoint" />
          </mxGeometry>
        </mxCell>
        <mxCell id="9ZWhQ6ZYqwrQ18zPPCwm-27" value="密码学做成两级子菜单，神经网络做成三级子菜单" style="text;html=1;align=center;verticalAlign=middle;whiteSpace=wrap;rounded=0;" vertex="1" parent="1">
          <mxGeometry x="35" y="450" width="240" height="110" as="geometry" />
        </mxCell>
      </root>
    </mxGraphModel>
  </diagram>
</mxfile>
